<?xml version="1.0" encoding="UTF-8"?> <svg xmlns="http://www.w3.org/2000/svg" width="110" height="46" viewBox="0 0 110 46" fill="none"><mask id="path-1-outside-1_120_441" maskUnits="userSpaceOnUse" x="0" y="-0.5" width="39" height="47" fill="black"><rect fill="white" y="-0.5" width="39" height="47"></rect><path d="M38.0081 11.8899C38.0068 11.8734 38.0043 11.8558 38.0005 11.8381C37.9992 11.8317 37.9942 11.8254 37.9929 11.8204C37.9904 11.809 37.9853 11.7964 37.9803 11.7863C37.9752 11.7799 37.9714 11.7749 37.9664 11.7698C37.96 11.761 37.9537 11.7509 37.9449 11.7433C37.9398 11.7382 37.9322 11.7319 37.9247 11.7269C37.9171 11.7218 37.9108 11.7142 37.9032 11.7092L19.6178 0.529381C19.6127 0.52559 19.6051 0.52559 19.5988 0.520535C19.5925 0.519271 19.5862 0.516744 19.5786 0.514216C19.5293 0.495261 19.4775 0.495261 19.4282 0.514216C19.4219 0.516744 19.4143 0.519271 19.408 0.520535C19.4029 0.52559 19.3941 0.52559 19.3878 0.529381L1.10236 11.7079C1.09478 11.7117 1.08719 11.7193 1.07961 11.7256C1.07456 11.7307 1.06445 11.737 1.06066 11.742C1.05434 11.7509 1.04802 11.7597 1.0417 11.7698C1.03665 11.7749 1.03159 11.7799 1.0278 11.7863C1.02148 11.7964 1.01769 11.8103 1.0139 11.8204C1.01264 11.8254 1.00885 11.8317 1.00632 11.8381C1.00379 11.8558 1 11.8734 1 11.8899C1 11.8899 1 11.8924 1 11.8949V34.1509C1 34.1585 1.00126 34.166 1.00253 34.1724C1.00379 34.1787 1.00379 34.1837 1.00379 34.1926C1.00758 34.2179 1.01643 34.2406 1.03033 34.2634V34.2659C1.03412 34.2722 1.04044 34.2772 1.04549 34.2836C1.04928 34.2911 1.0556 34.2987 1.06318 34.3088C1.07077 34.3139 1.07835 34.319 1.08719 34.3265C1.09351 34.3303 1.09604 34.3366 1.10489 34.3392L19.389 45.4684C19.3916 45.4709 19.3928 45.4709 19.3954 45.4709L19.3979 45.4735C19.4004 45.4735 19.4042 45.476 19.4067 45.4773C19.4219 45.4848 19.4333 45.4912 19.4484 45.4937C19.4598 45.4962 19.4712 45.4975 19.4813 45.4975C19.4876 45.5 19.4952 45.5 19.5028 45.5C19.5116 45.5 19.5167 45.5 19.5243 45.4975C19.5356 45.4975 19.547 45.4962 19.5571 45.4937C19.571 45.4912 19.5824 45.4848 19.595 45.4773C19.5988 45.476 19.6026 45.476 19.6077 45.4735L19.6089 45.4709C19.6114 45.4709 19.614 45.4709 19.6165 45.4684L37.9032 34.3392C37.9082 34.3366 37.912 34.3303 37.9183 34.3291C37.9285 34.319 37.9348 34.3139 37.9424 34.3076C37.9499 34.2987 37.9563 34.2911 37.9613 34.2836C37.9664 34.2772 37.9727 34.2722 37.9765 34.2659V34.2634C37.9904 34.2406 37.9992 34.2179 38.0017 34.1926C38.003 34.1837 38.003 34.1787 38.0043 34.1724C38.0055 34.166 38.0068 34.1585 38.0068 34.1509V11.8949C38.0081 11.8924 38.0081 11.8899 38.0081 11.8899ZM37.5721 18.9172L32.1332 15.5937L37.5721 12.2829V18.9172ZM19.0832 23.0229L13.5812 26.3691V19.6754L19.0832 23.0229ZM25.413 19.6817V26.3641L19.9236 23.0229L25.413 19.6817ZM19.7226 22.635V15.9261L25.2209 19.2887L19.7226 22.635ZM19.2854 22.635L13.7859 19.2887L19.2854 15.9261V22.635ZM13.1477 26.3097L7.71013 23.0027L13.1477 19.6792V26.3097ZM19.2842 23.4109V30.0439L13.8326 26.7268L19.2842 23.4109ZM19.7226 23.4121L25.1742 26.7293L19.7226 30.0452V23.4121ZM25.849 19.6716L31.2979 23.0027L25.849 26.3173V19.6716ZM26.06 19.2887L31.4521 16.0082V22.5869L26.06 19.2887ZM19.9236 15.5381L25.413 12.2096V18.8932L19.9236 15.5381ZM19.7226 15.1502V8.51585L25.1691 11.8469L19.7226 15.1502ZM19.2854 15.1502L13.8364 11.8482L19.2854 8.51585V15.1502ZM19.0832 15.5381L13.5812 18.902V12.2058L19.0832 15.5381ZM12.9481 19.2887L7.54459 22.5933V16.0032L12.9481 19.2887ZM7.10862 22.6362L1.63563 19.3064L7.10862 15.9615V22.6362ZM12.9961 26.7268L7.54585 30.0439V23.4121L12.9961 26.7268ZM13.1477 27.1463V33.7212L7.74678 30.4331L13.1477 27.1463ZM13.5812 27.0856L19.0832 30.4331L13.5812 33.7819V27.0856ZM25.413 27.0945V33.7781L19.9236 30.4344L25.413 27.0945ZM25.849 27.1387L31.2626 30.4331L25.849 33.7263V27.1387ZM26.0132 26.7293L31.4508 23.4197V30.0389L26.0132 26.7293ZM31.8881 15.9526L37.3699 19.3052L31.8881 22.6413V15.9526ZM25.849 18.9071V12.2627L31.2979 15.5925L25.849 18.9071ZM19.9248 8.12916L25.413 4.86128V11.483L19.9248 8.12916ZM13.5812 11.4906V4.85875L19.0807 8.12916L13.5812 11.4906ZM13.1477 18.8995L7.71139 15.5925L13.1477 12.269V18.8995ZM1.43471 18.9172V12.2829L6.87484 15.5937L1.43471 18.9172ZM6.87231 23.0039L1.43471 26.3274V19.6956L6.87231 23.0039ZM7.10862 23.3704V30.0452L1.63563 26.7154L7.10862 23.3704ZM12.9974 34.1382L7.54585 37.4567V30.8223L12.9974 34.1382ZM19.2842 30.8223V37.4554L13.8352 34.1382L19.2842 30.8223ZM19.7226 30.8223L25.1704 34.1408L19.7226 37.4567V30.8223ZM31.4508 30.8287V37.4567L26.0082 34.1408L31.4508 30.8287ZM31.8881 23.3628L37.3699 26.7154L31.8881 30.0515V23.3628ZM32.1332 23.0039L37.5721 19.6956V26.3274L32.1332 23.0039ZM26.0082 11.8482L31.4508 8.54744V15.1767L26.0082 11.8482ZM25.849 11.4362V4.84991L31.2562 8.1557L25.849 11.4362ZM19.7226 7.74247V1.10436L25.2209 4.46701L19.7226 7.74247ZM19.2854 7.745L13.7796 4.46954L19.2854 1.10309V7.745ZM13.1477 11.4312L7.74678 8.15822L13.1477 4.85749V11.4312ZM12.9974 11.8494L7.54585 15.1818V8.54744L12.9974 11.8494ZM1.43471 27.1021L6.90769 30.4344L1.43471 33.7629V27.1021ZM7.10862 30.8211V37.4807L1.63563 34.1509L7.10862 30.8211ZM13.1477 34.5578V41.1555L7.72656 37.8573L13.1477 34.5578ZM13.5812 34.4971L19.0832 37.8434L13.5812 41.1542V34.4971ZM25.413 34.5022V41.1542L19.9248 37.8434L25.413 34.5022ZM25.849 34.5527L31.2765 37.8585L25.849 41.163V34.5527ZM31.8881 30.8148L37.3699 34.1521L31.8881 37.4883V30.8148ZM32.1004 30.4344L37.5721 27.1021V33.7629L32.1004 30.4344ZM31.8881 15.231V8.54238L37.3699 11.8962L31.8881 15.231ZM7.10862 8.5487V15.2247L1.63563 11.8949L7.10862 8.5487ZM13.7834 41.5434L19.2842 38.23V44.8909L13.7834 41.5434ZM19.7226 38.23L25.2171 41.5459L19.7226 44.8909V38.23Z"></path></mask><path d="M38.0081 11.8899C38.0068 11.8734 38.0043 11.8558 38.0005 11.8381C37.9992 11.8317 37.9942 11.8254 37.9929 11.8204C37.9904 11.809 37.9853 11.7964 37.9803 11.7863C37.9752 11.7799 37.9714 11.7749 37.9664 11.7698C37.96 11.761 37.9537 11.7509 37.9449 11.7433C37.9398 11.7382 37.9322 11.7319 37.9247 11.7269C37.9171 11.7218 37.9108 11.7142 37.9032 11.7092L19.6178 0.529381C19.6127 0.52559 19.6051 0.52559 19.5988 0.520535C19.5925 0.519271 19.5862 0.516744 19.5786 0.514216C19.5293 0.495261 19.4775 0.495261 19.4282 0.514216C19.4219 0.516744 19.4143 0.519271 19.408 0.520535C19.4029 0.52559 19.3941 0.52559 19.3878 0.529381L1.10236 11.7079C1.09478 11.7117 1.08719 11.7193 1.07961 11.7256C1.07456 11.7307 1.06445 11.737 1.06066 11.742C1.05434 11.7509 1.04802 11.7597 1.0417 11.7698C1.03665 11.7749 1.03159 11.7799 1.0278 11.7863C1.02148 11.7964 1.01769 11.8103 1.0139 11.8204C1.01264 11.8254 1.00885 11.8317 1.00632 11.8381C1.00379 11.8558 1 11.8734 1 11.8899C1 11.8899 1 11.8924 1 11.8949V34.1509C1 34.1585 1.00126 34.166 1.00253 34.1724C1.00379 34.1787 1.00379 34.1837 1.00379 34.1926C1.00758 34.2179 1.01643 34.2406 1.03033 34.2634V34.2659C1.03412 34.2722 1.04044 34.2772 1.04549 34.2836C1.04928 34.2911 1.0556 34.2987 1.06318 34.3088C1.07077 34.3139 1.07835 34.319 1.08719 34.3265C1.09351 34.3303 1.09604 34.3366 1.10489 34.3392L19.389 45.4684C19.3916 45.4709 19.3928 45.4709 19.3954 45.4709L19.3979 45.4735C19.4004 45.4735 19.4042 45.476 19.4067 45.4773C19.4219 45.4848 19.4333 45.4912 19.4484 45.4937C19.4598 45.4962 19.4712 45.4975 19.4813 45.4975C19.4876 45.5 19.4952 45.5 19.5028 45.5C19.5116 45.5 19.5167 45.5 19.5243 45.4975C19.5356 45.4975 19.547 45.4962 19.5571 45.4937C19.571 45.4912 19.5824 45.4848 19.595 45.4773C19.5988 45.476 19.6026 45.476 19.6077 45.4735L19.6089 45.4709C19.6114 45.4709 19.614 45.4709 19.6165 45.4684L37.9032 34.3392C37.9082 34.3366 37.912 34.3303 37.9183 34.3291C37.9285 34.319 37.9348 34.3139 37.9424 34.3076C37.9499 34.2987 37.9563 34.2911 37.9613 34.2836C37.9664 34.2772 37.9727 34.2722 37.9765 34.2659V34.2634C37.9904 34.2406 37.9992 34.2179 38.0017 34.1926C38.003 34.1837 38.003 34.1787 38.0043 34.1724C38.0055 34.166 38.0068 34.1585 38.0068 34.1509V11.8949C38.0081 11.8924 38.0081 11.8899 38.0081 11.8899ZM37.5721 18.9172L32.1332 15.5937L37.5721 12.2829V18.9172ZM19.0832 23.0229L13.5812 26.3691V19.6754L19.0832 23.0229ZM25.413 19.6817V26.3641L19.9236 23.0229L25.413 19.6817ZM19.7226 22.635V15.9261L25.2209 19.2887L19.7226 22.635ZM19.2854 22.635L13.7859 19.2887L19.2854 15.9261V22.635ZM13.1477 26.3097L7.71013 23.0027L13.1477 19.6792V26.3097ZM19.2842 23.4109V30.0439L13.8326 26.7268L19.2842 23.4109ZM19.7226 23.4121L25.1742 26.7293L19.7226 30.0452V23.4121ZM25.849 19.6716L31.2979 23.0027L25.849 26.3173V19.6716ZM26.06 19.2887L31.4521 16.0082V22.5869L26.06 19.2887ZM19.9236 15.5381L25.413 12.2096V18.8932L19.9236 15.5381ZM19.7226 15.1502V8.51585L25.1691 11.8469L19.7226 15.1502ZM19.2854 15.1502L13.8364 11.8482L19.2854 8.51585V15.1502ZM19.0832 15.5381L13.5812 18.902V12.2058L19.0832 15.5381ZM12.9481 19.2887L7.54459 22.5933V16.0032L12.9481 19.2887ZM7.10862 22.6362L1.63563 19.3064L7.10862 15.9615V22.6362ZM12.9961 26.7268L7.54585 30.0439V23.4121L12.9961 26.7268ZM13.1477 27.1463V33.7212L7.74678 30.4331L13.1477 27.1463ZM13.5812 27.0856L19.0832 30.4331L13.5812 33.7819V27.0856ZM25.413 27.0945V33.7781L19.9236 30.4344L25.413 27.0945ZM25.849 27.1387L31.2626 30.4331L25.849 33.7263V27.1387ZM26.0132 26.7293L31.4508 23.4197V30.0389L26.0132 26.7293ZM31.8881 15.9526L37.3699 19.3052L31.8881 22.6413V15.9526ZM25.849 18.9071V12.2627L31.2979 15.5925L25.849 18.9071ZM19.9248 8.12916L25.413 4.86128V11.483L19.9248 8.12916ZM13.5812 11.4906V4.85875L19.0807 8.12916L13.5812 11.4906ZM13.1477 18.8995L7.71139 15.5925L13.1477 12.269V18.8995ZM1.43471 18.9172V12.2829L6.87484 15.5937L1.43471 18.9172ZM6.87231 23.0039L1.43471 26.3274V19.6956L6.87231 23.0039ZM7.10862 23.3704V30.0452L1.63563 26.7154L7.10862 23.3704ZM12.9974 34.1382L7.54585 37.4567V30.8223L12.9974 34.1382ZM19.2842 30.8223V37.4554L13.8352 34.1382L19.2842 30.8223ZM19.7226 30.8223L25.1704 34.1408L19.7226 37.4567V30.8223ZM31.4508 30.8287V37.4567L26.0082 34.1408L31.4508 30.8287ZM31.8881 23.3628L37.3699 26.7154L31.8881 30.0515V23.3628ZM32.1332 23.0039L37.5721 19.6956V26.3274L32.1332 23.0039ZM26.0082 11.8482L31.4508 8.54744V15.1767L26.0082 11.8482ZM25.849 11.4362V4.84991L31.2562 8.1557L25.849 11.4362ZM19.7226 7.74247V1.10436L25.2209 4.46701L19.7226 7.74247ZM19.2854 7.745L13.7796 4.46954L19.2854 1.10309V7.745ZM13.1477 11.4312L7.74678 8.15822L13.1477 4.85749V11.4312ZM12.9974 11.8494L7.54585 15.1818V8.54744L12.9974 11.8494ZM1.43471 27.1021L6.90769 30.4344L1.43471 33.7629V27.1021ZM7.10862 30.8211V37.4807L1.63563 34.1509L7.10862 30.8211ZM13.1477 34.5578V41.1555L7.72656 37.8573L13.1477 34.5578ZM13.5812 34.4971L19.0832 37.8434L13.5812 41.1542V34.4971ZM25.413 34.5022V41.1542L19.9248 37.8434L25.413 34.5022ZM25.849 34.5527L31.2765 37.8585L25.849 41.163V34.5527ZM31.8881 30.8148L37.3699 34.1521L31.8881 37.4883V30.8148ZM32.1004 30.4344L37.5721 27.1021V33.7629L32.1004 30.4344ZM31.8881 15.231V8.54238L37.3699 11.8962L31.8881 15.231ZM7.10862 8.5487V15.2247L1.63563 11.8949L7.10862 8.5487ZM13.7834 41.5434L19.2842 38.23V44.8909L13.7834 41.5434ZM19.7226 38.23L25.2171 41.5459L19.7226 44.8909V38.23Z" fill="white"></path><path d="M38.0081 11.8899C38.0068 11.8734 38.0043 11.8558 38.0005 11.8381C37.9992 11.8317 37.9942 11.8254 37.9929 11.8204C37.9904 11.809 37.9853 11.7964 37.9803 11.7863C37.9752 11.7799 37.9714 11.7749 37.9664 11.7698C37.96 11.761 37.9537 11.7509 37.9449 11.7433C37.9398 11.7382 37.9322 11.7319 37.9247 11.7269C37.9171 11.7218 37.9108 11.7142 37.9032 11.7092L19.6178 0.529381C19.6127 0.52559 19.6051 0.52559 19.5988 0.520535C19.5925 0.519271 19.5862 0.516744 19.5786 0.514216C19.5293 0.495261 19.4775 0.495261 19.4282 0.514216C19.4219 0.516744 19.4143 0.519271 19.408 0.520535C19.4029 0.52559 19.3941 0.52559 19.3878 0.529381L1.10236 11.7079C1.09478 11.7117 1.08719 11.7193 1.07961 11.7256C1.07456 11.7307 1.06445 11.737 1.06066 11.742C1.05434 11.7509 1.04802 11.7597 1.0417 11.7698C1.03665 11.7749 1.03159 11.7799 1.0278 11.7863C1.02148 11.7964 1.01769 11.8103 1.0139 11.8204C1.01264 11.8254 1.00885 11.8317 1.00632 11.8381C1.00379 11.8558 1 11.8734 1 11.8899C1 11.8899 1 11.8924 1 11.8949V34.1509C1 34.1585 1.00126 34.166 1.00253 34.1724C1.00379 34.1787 1.00379 34.1837 1.00379 34.1926C1.00758 34.2179 1.01643 34.2406 1.03033 34.2634V34.2659C1.03412 34.2722 1.04044 34.2772 1.04549 34.2836C1.04928 34.2911 1.0556 34.2987 1.06318 34.3088C1.07077 34.3139 1.07835 34.319 1.08719 34.3265C1.09351 34.3303 1.09604 34.3366 1.10489 34.3392L19.389 45.4684C19.3916 45.4709 19.3928 45.4709 19.3954 45.4709L19.3979 45.4735C19.4004 45.4735 19.4042 45.476 19.4067 45.4773C19.4219 45.4848 19.4333 45.4912 19.4484 45.4937C19.4598 45.4962 19.4712 45.4975 19.4813 45.4975C19.4876 45.5 19.4952 45.5 19.5028 45.5C19.5116 45.5 19.5167 45.5 19.5243 45.4975C19.5356 45.4975 19.547 45.4962 19.5571 45.4937C19.571 45.4912 19.5824 45.4848 19.595 45.4773C19.5988 45.476 19.6026 45.476 19.6077 45.4735L19.6089 45.4709C19.6114 45.4709 19.614 45.4709 19.6165 45.4684L37.9032 34.3392C37.9082 34.3366 37.912 34.3303 37.9183 34.3291C37.9285 34.319 37.9348 34.3139 37.9424 34.3076C37.9499 34.2987 37.9563 34.2911 37.9613 34.2836C37.9664 34.2772 37.9727 34.2722 37.9765 34.2659V34.2634C37.9904 34.2406 37.9992 34.2179 38.0017 34.1926C38.003 34.1837 38.003 34.1787 38.0043 34.1724C38.0055 34.166 38.0068 34.1585 38.0068 34.1509V11.8949C38.0081 11.8924 38.0081 11.8899 38.0081 11.8899ZM37.5721 18.9172L32.1332 15.5937L37.5721 12.2829V18.9172ZM19.0832 23.0229L13.5812 26.3691V19.6754L19.0832 23.0229ZM25.413 19.6817V26.3641L19.9236 23.0229L25.413 19.6817ZM19.7226 22.635V15.9261L25.2209 19.2887L19.7226 22.635ZM19.2854 22.635L13.7859 19.2887L19.2854 15.9261V22.635ZM13.1477 26.3097L7.71013 23.0027L13.1477 19.6792V26.3097ZM19.2842 23.4109V30.0439L13.8326 26.7268L19.2842 23.4109ZM19.7226 23.4121L25.1742 26.7293L19.7226 30.0452V23.4121ZM25.849 19.6716L31.2979 23.0027L25.849 26.3173V19.6716ZM26.06 19.2887L31.4521 16.0082V22.5869L26.06 19.2887ZM19.9236 15.5381L25.413 12.2096V18.8932L19.9236 15.5381ZM19.7226 15.1502V8.51585L25.1691 11.8469L19.7226 15.1502ZM19.2854 15.1502L13.8364 11.8482L19.2854 8.51585V15.1502ZM19.0832 15.5381L13.5812 18.902V12.2058L19.0832 15.5381ZM12.9481 19.2887L7.54459 22.5933V16.0032L12.9481 19.2887ZM7.10862 22.6362L1.63563 19.3064L7.10862 15.9615V22.6362ZM12.9961 26.7268L7.54585 30.0439V23.4121L12.9961 26.7268ZM13.1477 27.1463V33.7212L7.74678 30.4331L13.1477 27.1463ZM13.5812 27.0856L19.0832 30.4331L13.5812 33.7819V27.0856ZM25.413 27.0945V33.7781L19.9236 30.4344L25.413 27.0945ZM25.849 27.1387L31.2626 30.4331L25.849 33.7263V27.1387ZM26.0132 26.7293L31.4508 23.4197V30.0389L26.0132 26.7293ZM31.8881 15.9526L37.3699 19.3052L31.8881 22.6413V15.9526ZM25.849 18.9071V12.2627L31.2979 15.5925L25.849 18.9071ZM19.9248 8.12916L25.413 4.86128V11.483L19.9248 8.12916ZM13.5812 11.4906V4.85875L19.0807 8.12916L13.5812 11.4906ZM13.1477 18.8995L7.71139 15.5925L13.1477 12.269V18.8995ZM1.43471 18.9172V12.2829L6.87484 15.5937L1.43471 18.9172ZM6.87231 23.0039L1.43471 26.3274V19.6956L6.87231 23.0039ZM7.10862 23.3704V30.0452L1.63563 26.7154L7.10862 23.3704ZM12.9974 34.1382L7.54585 37.4567V30.8223L12.9974 34.1382ZM19.2842 30.8223V37.4554L13.8352 34.1382L19.2842 30.8223ZM19.7226 30.8223L25.1704 34.1408L19.7226 37.4567V30.8223ZM31.4508 30.8287V37.4567L26.0082 34.1408L31.4508 30.8287ZM31.8881 23.3628L37.3699 26.7154L31.8881 30.0515V23.3628ZM32.1332 23.0039L37.5721 19.6956V26.3274L32.1332 23.0039ZM26.0082 11.8482L31.4508 8.54744V15.1767L26.0082 11.8482ZM25.849 11.4362V4.84991L31.2562 8.1557L25.849 11.4362ZM19.7226 7.74247V1.10436L25.2209 4.46701L19.7226 7.74247ZM19.2854 7.745L13.7796 4.46954L19.2854 1.10309V7.745ZM13.1477 11.4312L7.74678 8.15822L13.1477 4.85749V11.4312ZM12.9974 11.8494L7.54585 15.1818V8.54744L12.9974 11.8494ZM1.43471 27.1021L6.90769 30.4344L1.43471 33.7629V27.1021ZM7.10862 30.8211V37.4807L1.63563 34.1509L7.10862 30.8211ZM13.1477 34.5578V41.1555L7.72656 37.8573L13.1477 34.5578ZM13.5812 34.4971L19.0832 37.8434L13.5812 41.1542V34.4971ZM25.413 34.5022V41.1542L19.9248 37.8434L25.413 34.5022ZM25.849 34.5527L31.2765 37.8585L25.849 41.163V34.5527ZM31.8881 30.8148L37.3699 34.1521L31.8881 37.4883V30.8148ZM32.1004 30.4344L37.5721 27.1021V33.7629L32.1004 30.4344ZM31.8881 15.231V8.54238L37.3699 11.8962L31.8881 15.231ZM7.10862 8.5487V15.2247L1.63563 11.8949L7.10862 8.5487ZM13.7834 41.5434L19.2842 38.23V44.8909L13.7834 41.5434ZM19.7226 38.23L25.2171 41.5459L19.7226 44.8909V38.23Z" stroke="white" stroke-width="0.5" mask="url(#path-1-outside-1_120_441)"></path><path d="M48.3062 31.7926L52.3848 38.1402L52.4217 38.1976H52.49H53.304H53.5341L53.4089 38.0046L48.9028 31.0557L52.3764 26.3951L52.5253 26.1954H52.2762H51.4232H51.3607L51.3232 26.2453L47.7962 30.9475V26.3204V26.1954H47.6712H47.0088H46.8838V26.3204V38.0726V38.1976H47.0088H47.6712H47.7962V38.0726V32.4239L48.3062 31.7926Z" fill="white" stroke="white" stroke-width="0.25"></path><path d="M55.3996 26.3204V26.1954H55.2746H54.6133H54.4883V26.3204V38.0726V38.1976H54.6133H55.2746H55.3996V38.0726V26.3204Z" fill="white" stroke="white" stroke-width="0.25"></path><path d="M57.0225 26.1954H56.8975V26.3204V38.0726V38.1976H57.0225H57.6827H57.8077V38.0726V27.9825L63.6791 38.1352L63.7152 38.1976H63.7873H64.4487H64.5737V38.0726V26.3204V26.1954H64.4487H63.7873H63.6623V26.3204V36.3068L57.8584 26.2578L57.8223 26.1954H57.7501H57.0225Z" fill="white" stroke="white" stroke-width="0.25"></path><path d="M75.9714 36.7024L76.0101 36.6654V36.6119V32.7925V32.6675H75.8851H75.2237H75.0987V32.7925V36.3149C74.1668 37.0519 73.0959 37.4168 71.8813 37.4168C70.4391 37.4168 69.2135 36.9097 68.1945 35.8907C67.1754 34.8716 66.6662 33.6408 66.6662 32.1964C66.6662 30.7564 67.1753 29.5287 68.1945 28.5096C69.2136 27.4904 70.4392 26.9813 71.8813 26.9813C73.2072 26.9813 74.3592 27.4178 75.345 28.2945L75.4291 28.3693L75.5123 28.2935L76.0125 27.8375L76.1139 27.745L76.0124 27.6527C74.8436 26.5892 73.4657 26.0553 71.8813 26.0553C70.1833 26.0553 68.7319 26.6571 67.5364 27.8548L67.5363 27.8549C66.3409 29.0545 65.7412 30.5037 65.7412 32.1964C65.7412 33.8943 66.3408 35.3446 67.5364 36.5402C68.732 37.738 70.1835 38.3366 71.8813 38.3366C73.4666 38.3366 74.8307 37.7914 75.9714 36.7024Z" fill="white" stroke="white" stroke-width="0.25"></path><path d="M78.0089 38.1976H78.1339V38.1826C80.0565 38.1692 81.5659 37.6283 82.6433 36.5446C83.8432 35.3469 84.4428 33.8944 84.4428 32.1965C84.4428 30.5037 83.8431 29.0524 82.6435 27.8486C81.5661 26.7659 80.0568 26.2227 78.1339 26.2093V26.1954H78.0089H77.3486H77.2236V26.3204V38.0726V38.1976H77.3486H78.0089ZM81.9896 35.8897L81.9893 35.8899C81.0973 36.787 79.8181 37.2498 78.1339 37.2628V27.1354C79.8181 27.1484 81.0965 27.6091 81.9896 28.5012C83.0086 29.5245 83.5157 30.7553 83.5157 32.1954C83.5157 33.641 83.0085 34.8707 81.9896 35.8897Z" fill="white" stroke="white" stroke-width="0.25"></path><path d="M95.7513 27.8294L95.7513 27.8294C94.5495 26.6287 93.0961 26.0269 91.3992 26.0258H91.3991C89.7011 26.0258 88.2466 26.6286 87.0479 27.8294C85.8461 29.0302 85.2432 30.4836 85.2432 32.1817C85.2432 33.8788 85.8461 35.3322 87.0479 36.534C88.2466 37.7359 89.7012 38.3366 91.3991 38.3366C93.096 38.3366 94.5505 37.7358 95.7514 36.5339C96.9521 35.3321 97.5539 33.8787 97.5539 32.1817C97.5539 30.4837 96.9521 29.0302 95.7513 27.8294ZM87.7008 35.8824L87.7007 35.8823C86.6795 34.8591 86.1703 33.6261 86.1703 32.1817C86.1703 30.7352 86.6795 29.5045 87.7006 28.4833C88.7229 27.462 89.9538 26.9508 91.3991 26.9508C92.8433 26.9508 94.0742 27.462 95.0976 28.4834C96.1187 29.5045 96.6289 30.7364 96.6289 32.1817C96.6289 33.6271 96.1187 34.859 95.0974 35.8823L95.0974 35.8824C94.0752 36.9077 92.8434 37.4168 91.3991 37.4168C89.9527 37.4168 88.723 36.9077 87.7008 35.8824Z" fill="white" stroke="white" stroke-width="0.25"></path><path d="M99.713 26.2578L99.677 26.1954H99.6048H98.8477H98.6378L98.7377 26.3799L98.75 26.4026V38.0726V38.1976H98.875H99.5374H99.6624V38.0726V27.9823L103.91 35.3235L104.018 35.5106L104.126 35.3234L108.367 27.9829V38.0726V38.1976H108.492H109.152H109.277V38.0726V26.4047L109.289 26.3833L109.399 26.1954H109.181H108.425H108.353L108.317 26.2579L104.018 33.7093L99.713 26.2578Z" fill="white" stroke="white" stroke-width="0.25"></path><path d="M51.8033 8.63288L51.8031 8.6327C51.265 8.099 50.6153 7.82876 49.8596 7.82876H47.3564H47.2314V7.95376V22.0522V22.1772H47.3564H50.0891H50.2141V22.1654C51.4115 22.1175 52.4473 21.644 53.316 20.747L53.3163 20.7467C54.2776 19.7477 54.7602 18.5637 54.7602 17.1976C54.7602 15.8262 54.2783 14.6526 53.3169 13.6838C52.7903 13.1044 52.2261 12.7228 51.6265 12.5441C52.2731 11.9426 52.6099 11.2844 52.6099 10.5717C52.6099 9.81593 52.3396 9.167 51.8033 8.63288ZM51.1051 11.7654L51.1047 11.7657C50.8168 12.0322 50.4679 12.1848 50.0557 12.2253H48.2755V8.87067H49.8585C50.3561 8.87067 50.7698 9.03239 51.103 9.3518C51.4348 9.67097 51.6017 10.0736 51.6017 10.5706C51.6017 11.0688 51.4349 11.4628 51.1051 11.7654ZM52.5358 19.9743C51.8731 20.6646 51.0914 21.0496 50.1894 21.1343H50.0891H48.2755V13.322H49.7975C50.8679 13.322 51.7807 13.6995 52.5375 14.4574L52.5376 14.4574C53.2955 15.2154 53.673 16.1261 53.673 17.1976C53.673 18.2681 53.2954 19.1911 52.5363 19.9739L52.5358 19.9743Z" fill="white" stroke="white" stroke-width="0.25"></path><path d="M57.1221 7.95376V7.82876H56.9971H56.2041H56.0791V7.95376V22.0512V22.1762H56.2041H56.9971H57.1221V22.0512V7.95376Z" fill="white" stroke="white" stroke-width="0.25"></path><path d="M62.5767 22.1762H62.7017V22.0512V8.87172H66.1424H66.2674V8.74672V7.95376V7.82876H66.1424H58.2139H58.0889V7.95376V8.74672V8.87172H58.2139H61.6588V22.0512V22.1762H61.7838H62.5767Z" fill="white" stroke="white" stroke-width="0.25"></path><path d="M68.2225 12.9599L68.2225 12.96C68.8212 13.5587 69.6314 14.0239 70.6484 14.3631C71.4775 14.7027 72.1757 15.1588 72.7411 15.7262L72.7412 15.7263C73.3825 16.3686 73.7008 17.1352 73.7008 18.0348C73.7008 18.941 73.3822 19.7116 72.7412 20.3526C72.1013 20.9926 71.3317 21.3112 70.4255 21.3112C69.5248 21.3112 68.7572 20.9917 68.1181 20.3526L68.118 20.3525C67.5654 19.8019 67.2526 19.1605 67.1736 18.4258L67.1565 18.2665L67.0062 18.3218L66.2596 18.5967L66.1642 18.6318L66.1791 18.7322C66.3107 19.624 66.7147 20.4053 67.3842 21.0759C68.2246 21.9205 69.2409 22.3468 70.4255 22.3468C71.6098 22.3468 72.6262 21.9238 73.4646 21.0843C74.3041 20.2438 74.7269 19.2253 74.7269 18.0348C74.7269 16.8505 74.304 15.8382 73.4645 15.004C72.6823 14.2218 71.7183 13.6452 70.5766 13.2752C69.8832 12.9516 69.3491 12.599 68.9623 12.2184C68.5573 11.8132 68.3559 11.328 68.3559 10.756C68.3559 10.1783 68.5576 9.69326 68.9623 9.2904C69.3698 8.88799 69.8543 8.68742 70.4265 8.68742C70.9991 8.68742 71.4825 8.88609 71.8887 9.28624C72.1179 9.51456 72.2801 9.76472 72.3796 10.0338L72.4238 10.1532L72.5425 10.1068L73.2575 9.82666L73.3667 9.78388L73.3309 9.67219C73.1999 9.26237 72.966 8.8955 72.6294 8.57087C72.0167 7.96709 71.2809 7.66342 70.4276 7.66342C69.5658 7.66342 68.8283 7.96819 68.2224 8.57634L68.2222 8.5765C67.6192 9.18389 67.315 9.91248 67.315 10.756C67.315 11.6186 67.6186 12.355 68.2225 12.9599Z" fill="white" stroke="white" stroke-width="0.25"></path></svg> 