<svg xmlns="http://www.w3.org/2000/svg" width="135" height="164" viewBox="0 0 135 164" fill="none"><script xmlns=""/><path d="M134.5 41.5098C134.495 41.4499 134.486 41.3854 134.473 41.3209C134.468 41.2979 134.45 41.2749 134.445 41.2565C134.436 41.215 134.418 41.169 134.399 41.1321C134.381 41.1091 134.367 41.0907 134.349 41.0723C134.326 41.04 134.303 41.0032 134.271 40.9755C134.253 40.9571 134.225 40.9341 134.198 40.9157C134.171 40.8972 134.148 40.8696 134.12 40.8512L67.9118 0.107076C67.8935 0.0932601 67.8661 0.0932602 67.8432 0.0748385C67.8203 0.0702331 67.7974 0.0610218 67.77 0.0518109C67.5915 -0.0172703 67.4039 -0.0172703 67.2255 0.0518109C67.2026 0.0610218 67.1751 0.0702331 67.1523 0.0748385C67.134 0.0932602 67.1019 0.0932601 67.079 0.107076L0.870621 40.8466C0.843167 40.8604 0.815714 40.888 0.78826 40.9111C0.769958 40.9295 0.733354 40.9525 0.719627 40.9709C0.696749 41.0032 0.673871 41.0354 0.650994 41.0723C0.632691 41.0907 0.614389 41.1091 0.600662 41.1321C0.577784 41.169 0.564058 41.2196 0.550331 41.2565C0.545756 41.2749 0.532029 41.2979 0.522878 41.3209C0.513727 41.3854 0.5 41.4499 0.5 41.5098C0.5 41.5098 0.5 41.519 0.5 41.5282V122.639C0.5 122.666 0.504575 122.694 0.509151 122.717C0.513727 122.74 0.513727 122.759 0.513727 122.791C0.527453 122.883 0.559483 122.966 0.609814 123.049V123.058C0.62354 123.081 0.646418 123.099 0.66472 123.122C0.678447 123.15 0.701325 123.178 0.728778 123.214C0.756231 123.233 0.783685 123.251 0.815714 123.279C0.838592 123.293 0.847743 123.316 0.879772 123.325L67.0836 163.885C67.0928 163.894 67.0974 163.894 67.1065 163.894L67.1157 163.903C67.1248 163.903 67.1385 163.913 67.1477 163.917C67.2026 163.945 67.2438 163.968 67.2987 163.977C67.3399 163.986 67.381 163.991 67.4176 163.991C67.4405 164 67.468 164 67.4954 164C67.5275 164 67.5458 164 67.5732 163.991C67.6144 163.991 67.6556 163.986 67.6922 163.977C67.7425 163.968 67.7837 163.945 67.8294 163.917C67.8432 163.913 67.8569 163.913 67.8752 163.903L67.8798 163.894C67.8889 163.894 67.8981 163.894 67.9072 163.885L134.12 123.325C134.139 123.316 134.152 123.293 134.175 123.288C134.212 123.251 134.235 123.233 134.262 123.21C134.29 123.178 134.312 123.15 134.331 123.122C134.349 123.099 134.372 123.081 134.386 123.058V123.049C134.436 122.966 134.468 122.883 134.477 122.791C134.482 122.759 134.482 122.74 134.486 122.717C134.491 122.694 134.495 122.666 134.495 122.639V41.5282C134.5 41.519 134.5 41.5098 134.5 41.5098ZM132.921 67.1205L113.228 55.0082L132.921 42.9421V67.1205ZM65.9763 82.0835L46.0543 94.2786V69.8837L65.9763 82.0835ZM88.8953 69.9068V94.2602L69.0191 82.0835L88.8953 69.9068ZM68.2916 80.6696V56.2195L88.1999 68.4745L68.2916 80.6696ZM66.7084 80.6696L46.7956 68.4745L66.7084 56.2195V80.6696ZM44.4849 94.0622L24.7963 82.0098L44.4849 69.8976V94.0622ZM66.7039 83.4973V107.671L46.9649 95.5819L66.7039 83.4973ZM68.2916 83.5019L88.0306 95.5912L68.2916 107.676V83.5019ZM90.4739 69.8699L110.204 82.0098L90.4739 94.0898V69.8699ZM91.238 68.4745L110.762 56.5188V80.4946L91.238 68.4745ZM69.0191 54.8056L88.8953 42.6749V67.033L69.0191 54.8056ZM68.2916 53.3917V29.2133L88.0123 41.3532L68.2916 53.3917ZM66.7084 53.3917L46.9786 41.3578L66.7084 29.2133V53.3917ZM65.9763 54.8056L46.0543 67.0652V42.6611L65.9763 54.8056ZM43.762 68.4745L24.1969 80.5176V56.5004L43.762 68.4745ZM22.6183 80.6742L2.80151 68.539L22.6183 56.3484V80.6742ZM43.9358 95.5819L24.2014 107.671V83.5019L43.9358 95.5819ZM44.4849 97.111V121.073L24.9289 109.09L44.4849 97.111ZM46.0543 96.8899L65.9763 109.09L46.0543 121.294V96.8899ZM88.8953 96.9221V121.28L69.0191 109.094L88.8953 96.9221ZM90.4739 97.0833L110.076 109.09L90.4739 121.091V97.0833ZM91.0687 95.5912L110.757 83.5296V107.653L91.0687 95.5912ZM112.341 56.3162L132.189 68.5343L112.341 80.6926V56.3162ZM90.4739 67.0836V42.8684L110.204 55.0036L90.4739 67.0836ZM69.0237 27.804L88.8953 15.8944V40.0268L69.0237 27.804ZM46.0543 40.0545V15.8852L65.9672 27.804L46.0543 40.0545ZM44.4849 67.056L24.8008 55.0036L44.4849 42.8914V67.056ZM2.07399 67.1205V42.9421L21.7718 55.0082L2.07399 67.1205ZM21.7627 82.0144L2.07399 94.1266V69.9574L21.7627 82.0144ZM22.6183 83.35V107.676L2.80151 95.5405L22.6183 83.35ZM43.9404 122.593L24.2014 134.687V110.508L43.9404 122.593ZM66.7039 110.508V134.682L46.974 122.593L66.7039 110.508ZM68.2916 110.508L88.0168 122.602L68.2916 134.687V110.508ZM110.757 110.531V134.687L91.0504 122.602L110.757 110.531ZM112.341 83.3223L132.189 95.5405L112.341 107.699V83.3223ZM113.228 82.0144L132.921 69.9574V94.1266L113.228 82.0144ZM91.0504 41.3578L110.757 29.3284V53.4885L91.0504 41.3578ZM90.4739 39.8564V15.853L110.053 27.9008L90.4739 39.8564ZM68.2916 26.3948V2.20254L88.1999 14.4576L68.2916 26.3948ZM66.7084 26.404L46.7727 14.4668L66.7084 2.19794V26.404ZM44.4849 39.838L24.9289 27.91L44.4849 15.8806V39.838ZM43.9404 41.3624L24.2014 53.5069V29.3284L43.9404 41.3624ZM2.07399 96.9498L21.8908 109.094L2.07399 121.225V96.9498ZM22.6183 110.503V134.774L2.80151 122.639L22.6183 110.503ZM44.4849 124.122V148.167L24.8557 136.146L44.4849 124.122ZM46.0543 123.901L65.9763 136.096L46.0543 148.162V123.901ZM88.8953 123.919V148.162L69.0237 136.096L88.8953 123.919ZM90.4739 124.103L110.126 136.151L90.4739 148.194V124.103ZM112.341 110.48L132.189 122.643L112.341 134.802V110.48ZM113.109 109.094L132.921 96.9498V121.225L113.109 109.094ZM112.341 53.6865V29.31L132.189 41.5328L112.341 53.6865ZM22.6183 29.333V53.6635L2.80151 41.5282L22.6183 29.333ZM46.7864 149.58L66.7039 137.505V161.78L46.7864 149.58ZM68.2916 137.505L88.1861 149.59L68.2916 161.78V137.505Z" fill="white"/><link xmlns=""/></svg>
