<svg xmlns="http://www.w3.org/2000/svg" width="1440" height="152" viewBox="0 0 1440 152" fill="none"><path d="M1440 65.8676L1224 52.999L1087.78 91.0063L568.512 59.8822L341.568 103.276H74.3041L0 119.5V151.5H207.36H1118.59H1440V65.8676Z" fill="#36064D"/><path d="M177.663 140.156L222.839 142.738L287.892 143.677L258.979 116.45L239.78 64.8117L235.262 19.7457L222.387 12L217.418 74.2005L194.378 102.601L159.592 105.653L131.583 88.753L113.965 56.8313L100.638 59.4132L48.6855 147.667L90.925 151.658L177.663 140.156Z" fill="#460665"/><path d="M235.262 19.7457L239.779 64.8117L258.979 116.45L255.365 120.675L235.262 115.042L227.356 119.266L237.747 108L238.876 88.2836L230.744 86.4058L224.194 80.5379L232.777 77.0171L230.518 61.2909L230.067 38.2885L231.648 19.9804L222.387 12L235.262 19.7457Z" fill="#7609A5"/><path d="M222.387 12L226.679 15.5208L223.968 31.7164L222.613 61.2909L220.128 89.2225L230.519 99.5501L223.291 115.746L207.705 133.35L177.211 131.941L170.887 121.144L197.992 114.337L194.378 102.601L217.418 74.2005L222.387 12Z" fill="#270537"/><path d="M113.965 56.832L131.584 88.7538L159.593 105.654L153.72 109.409L134.746 104.949L118.031 109.409L120.29 101.898L103.8 102.367L103.349 97.4384L115.546 89.9274L112.158 72.5582L105.833 64.343L113.965 56.832Z" fill="#7609A5"/><path d="M100.638 59.4138L105.155 58.9443L99.2825 66.9248L101.541 74.6705L90.4732 86.6411L95.6684 93.2133L89.3438 107.531L69.0146 121.38L80.7604 88.5189L85.9556 81.7121L100.638 59.4138Z" fill="#270537"/><path d="M1145.38 99.3465L1183.43 108.355L1237.37 109.106L1213.29 86.5841L1197.39 43.7925L1193.54 6.25608L1182.94 0L1178.85 51.5501L1159.83 75.3232L1130.93 77.8256L1107.57 63.5617L1092.88 37.036L1082.04 39.2882L1038.93 112.609L1073.85 115.863L1145.38 99.3465Z" fill="#460665"/><path d="M1193.54 6.25608L1197.39 43.7925L1213.29 86.5841L1210.4 90.0875L1193.54 85.3329L1187.04 88.8363L1195.71 79.5773L1196.67 63.0613L1189.93 61.5598L1184.39 56.8052L1191.61 53.8023L1189.69 40.7896L1189.21 21.7712L1190.65 6.50633L1182.94 0L1193.54 6.25608Z" fill="#7609A5"/><path d="M1182.94 0L1186.56 3.00292L1184.39 16.2658L1183.19 40.7896L1181.26 64.0622L1189.69 72.5705L1183.67 86.0836L1170.9 100.598L1145.38 99.3465L1140.08 90.588L1162.72 84.8324L1159.83 75.3232L1178.85 51.5501L1182.94 0Z" fill="#270537"/><path d="M1092.88 37.0352L1107.57 63.5609L1130.93 77.8248L1125.87 80.8277L1110.22 77.0741L1096.49 80.5775L1098.18 74.5716L1084.45 74.8219L1084.21 70.818L1094.32 64.5619L1091.43 50.298L1086.38 43.2912L1092.88 37.0352Z" fill="#7609A5"/><path d="M1082.04 39.2876L1085.65 38.7871L1080.84 45.5437L1082.76 52.05L1073.61 62.0597L1077.71 67.3148L1072.41 79.3265L1055.55 90.8377L1065.42 63.3109L1069.76 57.8056L1082.04 39.2876Z" fill="#270537"/><path d="M6.34277 125.52L9.12584 112.506L14.518 119.013H41.4789L53.3069 109.614L54.6984 112.506L44.9577 125.52L41.131 127.87L39.7395 131.123L36.6086 130.4L33.4776 134.015L11.735 132.75L6.34277 125.52Z" fill="#270537"/><path d="M9.12598 112.507L14.5182 119.014H41.4791L53.3071 109.615L40.4354 106L24.0849 108.892L9.12598 112.507Z" fill="#7609A5"/><path d="M53.3071 128.955L52.2634 123.894L50.1761 126.425H39.9136L37.8263 123.352L37.6523 125.16L38.5221 128.955L39.5657 129.859L45.4797 130.763L38.8699 130.582L40.2615 132.028L51.3937 131.666L53.3071 128.955Z" fill="#270537"/><path d="M52.2633 123.895L50.176 126.425H39.9135L37.8262 123.352L39.9135 122.629H50.176L52.2633 123.895Z" fill="#7609A5"/><path d="M533.32 81.5465L568.744 59.999L336.616 92.6195L263.752 120.751L283.912 124.043L239.229 139L162.723 149.5L263.752 142.5L300.904 147.236L314.152 129.729H404.008L401.416 117.758L533.32 81.5465Z" fill="#560D75"/><path d="M943.433 82.4443L675.305 59.999L596.393 61.4954L612.521 76.1596L706.409 77.656L775.817 88.1304L675.305 94.1158L747.593 109.678L820.457 103.992L813.257 91.1231L836.585 85.7362L887.273 81.8457L927.593 88.1304L943.433 82.4443Z" fill="#5F0685"/><path d="M353.44 96.8878L318.016 104.37L266.752 107.662L287.776 92.6981L299.872 65.4645L300.448 42.4207L309.952 37.9316L318.016 69.355L337.888 82.8221H365.536L386.56 72.9462L398.656 55.8878L409.312 56.7857L440.992 84.3185L413.344 92.6981L353.44 96.8878Z" fill="#460665"/><path d="M300.448 42.4207L299.872 65.4645L287.776 92.6981L290.944 94.4937L306.496 90.9024L313.12 92.6981L304.192 87.3112L301.888 77.4353L308.224 75.9389L313.12 72.9462L306.208 71.4499L306.784 63.3696L305.92 51.6981L303.328 42.4207L309.952 37.9316L300.448 42.4207Z" fill="#7609A5"/><path d="M309.952 37.9316L307.072 40.0265L309.952 48.1068L313.12 63.0703L316.864 77.136L309.088 82.8221L316 90.6032L329.248 98.9827L353.44 96.8878L357.76 91.2017L335.872 88.8076L337.888 82.8221L318.016 69.355L309.952 37.9316Z" fill="#270537"/><path d="M398.656 55.8877L386.56 72.9461L365.536 82.822L370.72 84.3184L385.408 81.3257L398.656 82.822L396.64 79.2308L409.6 78.6322V75.9388L399.52 72.9461L401.248 63.968L405.568 59.4789L398.656 55.8877Z" fill="#7609A5"/><path d="M409.313 56.7852H405.569L410.753 60.3764L409.601 64.5662L419.105 70.2523L415.361 73.5443L421.409 80.7268L440.993 84.318L426.881 70.5516L422.273 67.2596L409.313 56.7852Z" fill="#270537"/><path d="M948.498 94.5411L903.57 96.0375L839.346 90.9499L867.57 79.5776L885.714 54.7382L889.458 31.9937L901.842 29.001L907.89 61.3221L931.218 78.0813L965.49 82.5703L992.85 76.2856L1009.84 61.3221L1023.09 64.0156L1059.09 96.636L1023.95 100.227L948.498 94.5411Z" fill="#460665"/><path d="M889.456 31.9927L885.712 54.7372L867.568 79.5766L871.024 81.9708L890.896 80.7737L898.672 83.7664L888.304 76.8832L886.864 66.708L894.928 66.4087L901.264 64.0146L892.624 61.3212L894.64 53.5401L894.928 41.8686L892.912 32.292L901.84 29L889.456 31.9927Z" fill="#7609A5"/><path d="M901.841 29L897.809 30.4964L900.401 38.8759L902.417 54.4379L905.297 68.8029L895.217 73.292L902.705 82.2701L918.257 92.7445L948.497 94.5401L954.833 89.4526L927.761 83.7664L931.217 78.0803L907.889 61.3212L901.841 29Z" fill="#270537"/><path d="M1009.84 61.3203L992.848 76.2838L965.488 82.5685L971.536 84.9627L990.256 84.3641L1006.67 87.9554L1004.37 84.0648L1020.78 85.5612L1021.07 83.167L1008.98 78.3787L1012.14 69.6999L1017.9 65.8094L1009.84 61.3203Z" fill="#7609A5"/><path d="M1023.09 64.0146L1018.48 63.416L1024.53 67.9051L1022.51 71.7956L1033.46 78.6788L1028.56 81.6715L1035.19 89.7518L1059.09 96.635L1043.25 80.4744L1037.78 76.5839L1023.09 64.0146Z" fill="#270537"/><path opacity="0.83" d="M561.03 116.04C575.43 115.741 590.694 116.938 602.502 125.617C564.774 131.902 527.046 137.887 489.03 144.172C472.902 146.865 456.198 149.558 440.358 144.77C442.95 145.668 463.398 131.004 467.718 129.208C475.206 126.215 482.694 124.42 490.758 122.624C513.798 118.434 537.702 116.339 561.03 116.04Z" fill="#560D75"/><path d="M649.988 87.5549C654.308 87.5549 660.356 89.9491 658.916 94.1389C658.052 96.8323 654.884 97.4308 652.004 97.7301C632.708 99.2265 601.316 107.606 583.748 101.321C598.148 82.7666 630.404 87.5549 649.988 87.5549Z" fill="#560D75"/><path d="M1378.55 48.7862L1394.98 71.5829C1394.98 71.5829 1369.4 96.8164 1296.35 82.0823L1285.9 49.6802L1378.55 48.7862Z" fill="#460665"/><path d="M1378.55 48.7862C1378.55 48.7862 1357.92 58.9393 1332.31 59.1864C1306.71 59.4335 1285.9 49.6802 1285.9 49.6802C1285.9 49.6802 1306.53 39.5271 1332.13 39.2801C1357.74 39.033 1378.55 48.7862 1378.55 48.7862Z" fill="#460665"/><path d="M1372.68 48.0304C1372.68 48.0304 1353.98 55.524 1330.72 55.7484C1307.46 55.9729 1288.63 48.8414 1288.63 48.8414C1288.63 48.8414 1307.32 40.3321 1330.58 40.1077C1353.84 39.8832 1372.68 48.0304 1372.68 48.0304Z" fill="#7609A5"/><path d="M1366.22 47.4822C1366.22 47.4822 1348.69 54.152 1330.7 54.3255C1312.72 54.4991 1294.29 47.9732 1294.29 47.9732C1294.29 47.9732 1312.6 41.0927 1330.58 40.9192C1348.57 40.7457 1366.22 47.4822 1366.22 47.4822Z" fill="#460665"/><path d="M1305.26 51.1187C1312.12 52.8808 1321.52 54.4153 1330.9 54.3247C1339.7 54.2399 1348.28 52.5319 1354.92 50.8427C1348.25 49.0787 1339.05 47.3392 1329.86 47.4279C1320.87 47.7178 1311.89 49.4295 1305.26 51.1187Z" fill="#270537"/><path d="M1285.9 49.6799L1272.81 72.7614C1272.81 72.7614 1282.46 81.2003 1295.2 84.1246C1295.2 84.1246 1283.29 86.2709 1286.24 87.6645C1289.18 89.0581 1308.36 91.3108 1312.27 91.273C1316.18 91.2353 1310.46 85.8056 1301.06 84.4743C1291.67 83.1429 1367.86 99.675 1394.98 71.5826C1394.98 71.5826 1362.59 99.7259 1304.12 76.1159C1300.98 74.9273 1300.84 59.2866 1300.84 59.2866L1285.9 49.6799Z" fill="#270537"/><path d="M1298.15 65.0013C1297.57 65.2101 1296.99 65.622 1296.6 66.2352C1295.64 67.6665 1296.43 69.2839 1297.61 69.882C1299.38 70.8807 1301.93 71.6687 1303.68 70.636C1304.84 70.0154 1305.81 68.584 1304.62 66.9704C1303.63 65.1516 1299.91 64.5781 1298.15 65.0013Z" fill="#460665"/><path d="M1295.56 58.9317C1294.97 58.328 1294.38 57.9274 1293.59 57.7318C1293 57.5343 1292.42 57.54 1292.23 58.1512C1291.85 59.1706 1292.64 59.9756 1293.23 60.3762C1293.82 60.7768 1294.41 61.3805 1295.19 61.5761C1295.78 61.5704 1296.36 60.9554 1296.35 60.1429C1296.15 59.5354 1295.95 59.131 1295.56 58.9317Z" fill="#460665"/><path d="M1302.99 59.0628C1302.59 58.4572 1302 58.0566 1301.41 57.8592C1300.82 57.6617 1300.24 57.6674 1299.65 57.8761C1299.07 58.0849 1298.69 58.9012 1298.5 59.7156C1298.31 60.9362 1299.3 61.9424 1300.08 62.3411C1300.67 62.5386 1301.06 62.3317 1301.65 62.1229C1301.84 62.121 1302.23 61.9141 1302.43 61.9123C1303.01 61.5003 1303.58 59.8697 1302.99 59.0628Z" fill="#460665"/><path d="M1392.82 70.385L1376.41 49.8226C1376.41 49.8226 1350.1 58.6085 1331.34 59.1959C1331.34 59.1959 1368.89 83.0077 1392.82 70.385Z" fill="#7609A5"/><path d="M1347.42 65.5412C1346.84 65.9531 1346.45 66.3632 1346.07 66.9763C1345.3 68.812 1346.29 70.0213 1347.47 70.4162C1349.43 71.0068 1351.97 71.1854 1353.72 69.7465C1354.88 68.7196 1355.45 67.292 1354.27 65.8815C1352.69 64.2715 1348.98 64.7136 1347.42 65.5412Z" fill="#460665"/><path d="M1362.71 70.2685C1363.1 70.2647 1363.49 70.0578 1363.69 70.2591C1364.08 70.4584 1364.29 71.2691 1364.1 71.8803C1363.91 72.4916 1363.72 73.1029 1363.33 73.5129C1361.97 75.1511 1360.22 75.9806 1358.66 75.9957C1358.07 76.0013 1357.48 75.8038 1357.09 75.1982C1355.3 72.3714 1361.74 70.4811 1362.71 70.2685Z" fill="#460665"/><path d="M1363.44 63.5589C1363.63 63.557 1363.83 63.5552 1363.83 63.7583C1364.03 63.9595 1364.03 64.1627 1364.03 64.3658C1364.03 64.772 1363.84 65.1802 1363.65 65.3852C1363.26 65.7952 1362.67 65.5977 1362.47 64.7871C1362.46 63.9746 1363.04 63.5627 1363.44 63.5589Z" fill="#460665"/><path d="M1368.86 57.8183C1369.06 58.0195 1369.06 58.4258 1369.06 58.6289C1369.06 58.8321 1368.87 59.2402 1368.87 59.4433C1368.49 60.2596 1367.91 60.6715 1367.32 61.0834C1366.74 61.2922 1365.96 61.2997 1365.37 61.1023C1365.17 61.1042 1364.98 60.9029 1364.78 60.7017C1364.78 60.4986 1364.77 60.0923 1364.77 59.8892C1364.96 58.8717 1365.54 58.0535 1366.12 57.8447C1366.51 57.6378 1367.1 57.6322 1367.69 57.8296C1367.88 57.8277 1368.08 58.029 1368.27 58.0271C1368.47 57.6189 1368.66 57.6171 1368.86 57.8183Z" fill="#460665"/><path d="M1345.29 67.9989C1345.3 68.4051 1345.32 71.0458 1345.32 71.0458L1350.42 72.4186L1354.3 69.334L1354.86 66.2815L1354.89 69.7346L1352.76 72.396C1352.76 72.396 1351.02 74.4442 1350.83 74.4461C1350.63 74.448 1344.36 72.4771 1344.36 72.4771L1345.29 67.9989Z" fill="#270537"/><path d="M1359 70.7113C1358.81 71.3225 1358.05 73.1582 1358.05 73.1582L1360.02 75.1706L1363.93 75.1329L1364.87 71.4672L1363.72 73.7129L1360.21 74.3562L1359 70.7113Z" fill="#270537"/><path d="M1314.87 73.6317L1326.87 86.4647C1326.87 86.4647 1307.76 100.326 1253.66 91.6225L1246.18 73.4883L1314.87 73.6317V73.6317Z" fill="#460665"/><path d="M1314.87 73.632C1314.87 73.632 1299.38 79.0665 1280.44 79.0269C1261.5 78.9874 1246.03 73.4883 1246.03 73.4883C1246.03 73.4883 1261.52 68.0538 1280.46 68.0933C1299.4 68.1329 1314.87 73.632 1314.87 73.632Z" fill="#460665"/><path d="M1310.51 73.1543C1310.51 73.1543 1296.53 77.1862 1279.24 77.1501C1261.96 77.114 1247.98 73.0238 1247.98 73.0238C1247.98 73.0238 1261.97 68.5233 1279.26 68.5594C1296.54 68.5955 1310.51 73.1543 1310.51 73.1543Z" fill="#7609A5"/><path d="M1305.71 72.832C1305.71 72.832 1292.62 76.3972 1279.24 76.3692C1265.87 76.3413 1252.19 72.5641 1252.19 72.5641C1252.19 72.5641 1265.88 68.844 1279.26 68.8719C1292.64 68.8998 1305.71 72.832 1305.71 72.832Z" fill="#460665"/><path d="M1260.31 74.456C1265.42 75.4038 1272.33 76.5116 1279.24 76.5261C1285.71 76.5396 1292.17 75.6159 1296.98 74.845C1292.03 73.8974 1285.26 72.7899 1278.35 72.7755C1271.89 72.6058 1265.42 73.5295 1260.31 74.456Z" fill="#270537"/><path d="M1326.87 86.4649C1326.87 86.4649 1302.64 101.878 1259.38 88.3545C1257.13 87.5689 1257.14 78.9782 1257.14 78.9782L1246.18 73.4885L1236.24 86.2757C1236.24 86.2757 1243.44 90.9766 1252.76 92.7142C1252.76 92.7142 1243.89 93.789 1246.14 94.5747C1248.39 95.3604 1262.52 96.6394 1265.53 96.6457C1267.93 96.6507 1265.53 94.6152 1260.87 93.5121C1273.34 95.2563 1310.92 98.4586 1326.87 86.4649Z" fill="#270537"/><path d="M1255.03 82.0975C1254.58 82.2528 1254.13 82.408 1253.83 82.7198C1253.08 83.4992 1253.68 84.4376 1254.58 84.7519C1255.93 85.3795 1257.73 85.8518 1259.09 85.2299C1259.99 84.9194 1260.59 84.1397 1259.84 83.2009C1258.94 82.1057 1256.24 81.7876 1255.03 82.0975Z" fill="#460665"/><path d="M1253.24 78.658C1252.79 78.3446 1252.33 78.0313 1251.88 78.0304C1251.43 77.8732 1250.98 77.8723 1250.83 78.3405C1250.53 78.9647 1251.13 79.4345 1251.58 79.5917C1252.03 79.905 1252.48 80.2183 1252.93 80.2193C1253.38 80.2202 1253.83 79.9088 1253.68 79.4399C1253.54 78.971 1253.39 78.8145 1253.24 78.658Z" fill="#460665"/><path d="M1258.65 78.8244C1258.35 78.5114 1257.9 78.3542 1257.44 78.1971C1256.99 78.04 1256.54 78.039 1256.09 78.1943C1255.64 78.3495 1255.34 78.6613 1255.19 79.1296C1255.04 79.754 1255.64 80.38 1256.39 80.5378C1256.69 80.5384 1257.14 80.5394 1257.44 80.54C1257.59 80.5403 1257.89 80.541 1258.04 80.3851C1258.64 80.0739 1258.95 79.2936 1258.65 78.8244Z" fill="#460665"/><path d="M1325.22 85.6799L1313.22 74.2526C1313.22 74.2526 1293.67 78.8976 1279.69 79.1808C1279.69 79.0246 1307.32 92.5151 1325.22 85.6799Z" fill="#7609A5"/><path d="M1291.56 82.799C1291.11 82.9543 1290.8 83.266 1290.5 83.5778C1289.9 84.5137 1290.65 85.2962 1291.55 85.4543C1293.05 85.7698 1294.86 85.9298 1296.06 84.9951C1296.96 84.5284 1297.42 83.5922 1296.52 82.8094C1295.47 82.0262 1292.76 82.1767 1291.56 82.799Z" fill="#460665"/><path d="M1302.98 85.3222C1303.28 85.3228 1303.58 85.1672 1303.73 85.3237C1304.03 85.4806 1304.18 85.9495 1304.03 86.2615C1303.87 86.5736 1303.72 86.8857 1303.42 87.1974C1302.52 88.1327 1301.16 88.5985 1299.81 88.4395C1299.36 88.4385 1298.91 88.2814 1298.61 87.9684C1297.26 86.5598 1302.07 85.4765 1302.98 85.3222Z" fill="#460665"/><path d="M1303.43 81.7311C1303.58 81.7314 1303.58 81.7314 1303.73 81.8879C1303.73 81.8879 1303.88 82.0444 1303.88 82.2006C1303.88 82.3568 1303.73 82.6689 1303.58 82.8247C1303.28 83.1365 1302.83 82.8232 1302.68 82.5105C1302.68 81.8857 1303.13 81.7304 1303.43 81.7311Z" fill="#460665"/><path d="M1307.5 78.6146C1307.65 78.7711 1307.65 78.9273 1307.65 79.0835C1307.65 79.2397 1307.5 79.3956 1307.5 79.5517C1307.19 80.0197 1306.74 80.3312 1306.29 80.3302C1305.84 80.4855 1305.24 80.4842 1304.79 80.3271C1304.64 80.3268 1304.49 80.1702 1304.49 80.1702C1304.49 80.014 1304.49 79.8579 1304.49 79.7017C1304.64 79.2334 1305.09 78.7658 1305.54 78.4543C1305.85 78.2987 1306.3 78.2997 1306.75 78.4568C1306.9 78.4571 1307.05 78.6136 1307.2 78.4578C1307.2 78.4578 1307.35 78.4581 1307.5 78.6146Z" fill="#460665"/><path d="M1289.9 84.0452C1289.9 84.3576 1289.9 85.7633 1289.9 85.7633L1293.65 86.5521L1296.66 84.8403L1297.12 83.1231L1297.11 84.9974L1295.46 86.3997C1295.46 86.3997 1294.25 87.4906 1293.95 87.4899C1293.8 87.4896 1289.15 86.3865 1289.15 86.3865L1289.9 84.0452Z" fill="#270537"/><path d="M1300.12 85.6275C1299.97 85.9396 1299.37 87.0317 1299.37 87.0317L1300.72 88.1279L1303.57 88.1339L1304.33 86.1049L1303.42 87.3526L1300.87 87.6596L1300.12 85.6275Z" fill="#270537"/><path d="M1334.29 94.6258L1338.37 80.7142L1343.83 88.3299L1373.05 90.9012L1386.73 81.912L1388.04 85.0853L1376.17 98.3112L1354.81 98.0621L1356.46 101.877L1366.78 102.785L1362.96 106.323L1339.49 103.034L1334.29 94.6258Z" fill="#270537"/><path d="M1338.37 80.714L1343.83 88.3297L1373.05 90.901L1386.73 81.9118L1374.14 79.9879L1355.05 78.3081L1338.37 80.714Z" fill="#7609A5"/><path d="M1395.38 76.9642L1398.05 68.2296L1401.39 73.0083L1419.31 74.5853L1423.44 69.6484L1423.58 72.7188L1421.28 79.2441L1419.59 80.7262L1409.14 81.437L1420.47 82.0264L1418.13 84.2668L1398.68 82.1478L1395.38 76.9642Z" fill="#270537"/><path d="M1398.05 68.2299L1401.39 73.0087L1419.31 74.5857L1423.44 69.6487L1420.05 67.9233L1402.13 66.3462L1398.05 68.2299Z" fill="#7609A5"/><path d="M1219.67 63.068L1219.98 57.4583L1222.73 59.8696L1233.73 57.9934L1235.54 54.3912L1236.02 56.1623L1235.68 60.3359L1234.69 61.5357L1228.67 63.5912L1235.58 62.2058L1234.46 63.8394L1222.46 65.6797L1219.67 63.068Z" fill="#270537"/><path d="M1219.98 57.4583L1222.73 59.8696L1233.73 57.9934L1235.54 54.3912L1233.26 53.7511L1222.07 55.6602L1219.98 57.4583Z" fill="#7609A5"/><path d="M1253.33 89.1319C1253.33 89.1319 1263.55 96.147 1264.32 96.2155C1265.1 96.2841 1303.59 100.69 1303.59 100.69L1291.16 96.7422L1265.9 93.7042L1261.76 86.8157L1253.33 89.1319Z" fill="#270537"/><path d="M554.301 83.3779L566.397 102.83C566.397 102.83 547.389 124.079 493.245 110.911L485.757 83.3779H554.301Z" fill="#460665"/><path d="M554.301 83.3786C554.301 83.3786 539.037 91.7582 520.029 91.7582C501.021 91.7582 485.757 83.3786 485.757 83.3786C485.757 83.3786 501.021 74.999 520.029 74.999C539.037 74.999 554.301 83.3786 554.301 83.3786Z" fill="#460665"/><path d="M550.268 82.4819C550.268 82.4819 536.444 88.7665 519.164 88.7665C501.884 88.7665 488.06 82.4819 488.06 82.4819C488.06 82.4819 501.884 75.5986 519.164 75.5986C536.156 75.5986 550.268 82.4819 550.268 82.4819Z" fill="#7609A5"/><path d="M545.374 82.1824C545.374 82.1824 532.414 87.8685 519.166 87.8685C505.918 87.8685 492.094 82.1824 492.094 82.1824C492.094 82.1824 505.63 76.4962 519.166 76.4962C532.414 76.1969 545.374 82.1824 545.374 82.1824Z" fill="#460665"/><path d="M500.157 84.8751C505.341 86.3714 512.253 87.8678 519.165 87.8678C525.789 87.8678 532.125 86.6707 537.021 85.1743C532.125 83.678 525.213 82.1816 518.301 82.1816C511.677 82.1816 505.053 83.3787 500.157 84.8751Z" fill="#270537"/><path d="M485.757 83.3779L475.965 102.83C475.965 102.83 483.165 110.013 492.381 112.706C492.381 112.706 483.453 114.502 485.757 115.699C488.061 116.896 502.173 118.991 505.053 118.991C507.933 118.991 503.613 114.203 496.701 113.006C489.789 111.809 545.949 126.473 566.397 102.83C566.397 102.83 542.205 126.473 499.005 105.823C496.701 104.626 496.701 91.4582 496.701 91.4582L485.757 83.3779Z" fill="#270537"/><path d="M494.686 96.5454C494.398 96.8447 493.821 96.8447 493.533 97.4433C492.669 98.6403 493.533 100.137 494.109 100.436C495.549 101.334 497.278 101.932 498.718 101.334C499.582 100.735 500.158 99.5382 499.582 98.3411C498.718 96.5455 496.126 96.2462 494.686 96.5454Z" fill="#460665"/><path d="M492.957 91.1593C492.669 90.5608 492.093 90.2615 491.517 89.9622C491.229 89.6629 490.653 89.6629 490.365 90.2615C490.077 91.1593 490.653 91.7578 491.229 92.0571C491.517 92.3563 492.093 92.9549 492.669 92.9549C492.957 92.9549 493.533 92.3564 493.533 91.7578C493.245 91.7578 493.245 91.4586 492.957 91.1593Z" fill="#460665"/><path d="M498.43 91.4595C498.142 90.861 497.854 90.5617 497.278 90.5617C496.702 90.5617 496.414 90.2624 495.838 90.5617C495.55 90.861 494.974 91.4595 494.974 92.0581C494.974 92.9559 495.55 94.153 496.126 94.153C496.414 94.153 496.99 94.153 497.278 94.153C497.566 94.153 497.566 94.153 497.854 93.8537C498.43 93.5544 498.718 92.3573 498.43 91.4595Z" fill="#460665"/><path d="M564.957 101.634L552.861 83.9766C552.861 83.9766 533.277 91.159 519.453 91.4583C519.453 91.7576 547.101 112.407 564.957 101.634Z" fill="#7609A5"/><path d="M531.261 97.4445C530.973 97.7437 530.397 98.043 530.109 98.6416C529.533 100.138 530.397 101.335 531.261 101.634C532.701 101.934 534.429 102.233 535.869 101.036C536.733 100.138 537.021 98.9408 536.157 97.7437C535.293 96.2474 532.413 96.5466 531.261 97.4445Z" fill="#460665"/><path d="M542.493 101.334C542.781 101.334 543.069 101.334 543.357 101.334C543.645 101.633 543.645 102.232 543.645 102.83C543.645 103.429 543.357 103.728 543.069 104.327C542.205 105.823 540.765 106.422 539.613 106.422C539.325 106.422 538.749 106.122 538.461 105.823C537.021 103.13 541.917 101.633 542.493 101.334Z" fill="#460665"/><path d="M543.069 95.6484C543.069 95.6484 543.357 95.6484 543.357 95.9477C543.357 95.9477 543.357 96.2469 543.357 96.5462C543.357 96.8455 543.357 97.1448 543.069 97.444C542.781 97.7433 542.205 97.444 542.205 96.8455C542.205 96.247 542.781 95.6484 543.069 95.6484Z" fill="#460665"/><path d="M547.102 90.8607C547.102 91.1599 547.39 91.1599 547.39 91.4592C547.39 91.7585 547.39 92.0577 547.102 92.0577C546.814 92.6563 546.238 93.2548 545.95 93.2548C545.374 93.5541 545.086 93.2548 544.51 93.2548C544.51 93.2548 544.222 93.2548 544.222 92.9555C544.222 92.6563 544.222 92.357 544.222 92.357C544.51 91.4592 544.798 90.8606 545.374 90.5614C545.662 90.2621 546.238 90.2621 546.526 90.5614C546.814 90.5614 546.814 90.5614 547.102 90.5614C546.814 90.8606 547.102 90.8607 547.102 90.8607Z" fill="#460665"/><path d="M529.533 99.2405C529.533 99.5398 529.533 101.635 529.533 101.635L533.277 102.832L536.157 100.138L536.445 97.7441V100.737L534.717 102.832C534.717 102.832 533.565 104.627 533.277 104.627C532.989 104.627 528.381 102.832 528.381 102.832L529.533 99.2405Z" fill="#270537"/><path d="M539.901 101.635C539.613 102.233 539.325 103.73 539.325 103.73L540.765 105.525H543.645L544.509 102.533L543.645 104.328L541.053 104.927L539.901 101.635Z" fill="#270537"/></svg>