<?xml version="1.0" encoding="UTF-8"?> <svg xmlns="http://www.w3.org/2000/svg" width="100" height="100" viewBox="0 0 100 100" fill="none"><mask id="mask0_3497_19052" style="mask-type:alpha" maskUnits="userSpaceOnUse" x="0" y="0" width="100" height="100"><rect width="100" height="100" fill="#D9D9D9"></rect></mask><g mask="url(#mask0_3497_19052)"><mask id="mask1_3497_19052" style="mask-type:alpha" maskUnits="userSpaceOnUse" x="0" y="0" width="100" height="100"><rect width="100" height="100" fill="#D9D9D9"></rect></mask><g mask="url(#mask1_3497_19052)"><path d="M90.782 36.634V83.8195C90.782 85.4817 89.4221 86.804 87.7976 86.804H13.4115C12.2403 86.804 11.2203 86.1239 10.7292 85.1795C10.5025 84.7639 10.3892 84.3106 10.3892 83.8195V36.634C10.3892 34.9717 11.7492 33.6494 13.3737 33.6494H87.7598C88.8931 33.6494 89.8754 34.2917 90.3665 35.1984C90.6687 35.6139 90.782 36.1051 90.782 36.634Z" fill="#252628" stroke="#49443E" stroke-width="0.7519" stroke-miterlimit="10"></path><path d="M87.4722 83.4515L87.4722 36.946L13.7661 36.946L13.7661 83.4515L87.4722 83.4515Z" fill="#F7F4EC"></path><path d="M97.9221 85.2173H3.28662V87.2573H97.9221V85.2173Z" fill="url(#paint0_linear_3497_19052)"></path><path d="M92.1042 88.6173H9.10454L3.28662 87.2951H97.9221L92.1042 88.6173Z" fill="url(#paint1_linear_3497_19052)"></path><path opacity="0.05" d="M51.6434 35.2361C51.6434 35.8028 51.1901 36.2939 50.5857 36.2939C49.9812 36.2939 49.5278 35.8406 49.5278 35.2361C49.5278 34.6695 49.9812 34.1783 50.5857 34.1783C51.1901 34.1783 51.6434 34.6695 51.6434 35.2361Z" fill="white"></path><path d="M51.1144 35.2361C51.1144 35.5384 50.8878 35.765 50.5856 35.765C50.2833 35.765 50.0566 35.5384 50.0566 35.2361C50.0566 34.9339 50.2833 34.7072 50.5856 34.7072C50.8878 34.7072 51.1144 34.9339 51.1144 35.2361Z" fill="#252628"></path><path opacity="0.18" d="M50.7744 35.2361C50.7744 35.3117 50.6989 35.3872 50.6233 35.3872C50.5477 35.3872 50.4722 35.3117 50.4722 35.2361C50.4722 35.1606 50.5477 35.085 50.6233 35.085C50.6989 35.085 50.7744 35.1228 50.7744 35.2361Z" fill="white"></path><path opacity="0.1" d="M90.4043 35.1606L10.7292 85.1417C10.5025 84.7261 10.3892 84.2728 10.3892 83.7817V36.634C10.3892 34.9717 11.7492 33.6494 13.3737 33.6494H87.7598C88.9309 33.6117 89.9131 34.2539 90.4043 35.1606Z" fill="black"></path><path d="M14.167 30.7405H0L24.8961 13.9668H32.0362L14.167 30.7405Z" fill="#B9F2DC"></path><path d="M28.3717 30.7405H14.167L32.0363 13.9668H39.1387L28.3717 30.7405Z" fill="#63D9EE"></path><path d="M42.5386 30.7405H28.3716L39.1385 13.9668H46.2409L42.5386 30.7405Z" fill="#B9F2DC"></path><path d="M57.4611 30.7405H42.5386L46.2409 13.9668H53.381L57.4611 30.7405Z" fill="#63D9EE"></path><path d="M71.6284 30.7405H57.4615L53.3813 13.9668H60.4837L71.6284 30.7405Z" fill="#B9F2DC"></path><path d="M100 30.7405H85.7957L67.5864 13.9668H74.6888L100 30.7405Z" fill="#B9F2DC"></path><path d="M85.7956 30.7405H71.6286L60.4839 13.9668H67.5863L85.7956 30.7405Z" fill="#63D9EE"></path><path d="M14.167 30.7405H0V32.9316C0 36.3695 2.7956 39.1273 6.19568 39.1273H7.97128C11.4091 39.1273 14.167 36.3317 14.167 32.9316V30.7405Z" fill="#80DAB7"></path><path d="M28.3716 30.7405H14.2046V32.9316C14.2046 36.3695 17.0002 39.1273 20.4003 39.1273H22.1759C25.6137 39.1273 28.3716 36.3317 28.3716 32.9316V30.7405V30.7405Z" fill="#36B8CF"></path><path d="M42.5386 30.7405H28.3716V32.9316C28.3716 36.3695 31.1672 39.1273 34.5673 39.1273H36.3429C39.7807 39.1273 42.5386 36.3317 42.5386 32.9316V30.7405V30.7405Z" fill="#80DAB7"></path><path d="M57.4611 30.7404H42.5386V32.6294C42.5386 36.2183 45.4475 39.1651 49.0743 39.1651H50.9254C54.5144 39.1651 57.4611 36.2561 57.4611 32.6294V30.7404Z" fill="#36B8CF"></path><path d="M71.6284 30.7405H57.4614V32.9316C57.4614 36.3695 60.2571 39.1273 63.6571 39.1273H65.4327C68.8706 39.1273 71.6284 36.3317 71.6284 32.9316V30.7405V30.7405Z" fill="#80DAB7"></path><path d="M100 30.7404H85.7954V32.9316C85.7954 36.3695 88.591 39.1273 91.9911 39.1273H93.7667C97.2045 39.1273 99.9624 36.3317 99.9624 32.9316V30.7404H100Z" fill="#80DAB7"></path><path d="M85.7954 30.7404H71.6284V32.9316C71.6284 36.3695 74.424 39.1273 77.8241 39.1273H79.5997C83.0376 39.1273 85.7954 36.3317 85.7954 32.9316V30.7404V30.7404Z" fill="#36B8CF"></path><path d="M74.6882 13.9668H24.896V12.9089C24.896 11.5489 25.9915 10.4911 27.3138 10.4911H72.2326C73.5926 10.4911 74.6504 11.5867 74.6504 12.9089V13.9668H74.6882Z" fill="url(#paint2_linear_3497_19052)"></path><path d="M39.3655 73.0525H24.8585C23.0451 73.0525 21.5718 71.5791 21.5718 69.7658C21.5718 67.9524 23.0451 66.479 24.8585 66.479H39.3655C41.1789 66.479 42.6523 67.9524 42.6523 69.7658C42.6523 71.5791 41.1789 73.0525 39.3655 73.0525Z" fill="url(#paint3_linear_3497_19052)"></path><g opacity="0.4"><path d="M44.4279 49.1009H19.834V50.3476H44.4279V49.1009Z" fill="#606060"></path><path d="M44.4279 53.2565H19.834V54.5032H44.4279V53.2565Z" fill="#606060"></path><path d="M44.4279 57.4499H19.834V58.6966H44.4279V57.4499Z" fill="#606060"></path><path d="M44.4279 61.6056H19.834V62.8523H44.4279V61.6056Z" fill="#606060"></path></g><path d="M83.8309 45.4741H50.4346V74.1859H83.8309V45.4741Z" fill="url(#paint4_linear_3497_19052)"></path><path d="M62.0323 65.799H60.8989" stroke="white" stroke-width="0.5" stroke-miterlimit="10"></path><path d="M73.2149 65.6102L72.0815 65.648" stroke="white" stroke-width="0.5" stroke-miterlimit="10"></path><path d="M69.7773 65.6857C69.7773 66.3279 70.3062 66.819 70.9485 66.819C71.5907 66.819 72.0818 66.2902 72.0818 65.6479C72.0818 65.0057 71.5529 64.5146 70.9107 64.5146C70.2685 64.5146 69.7773 65.0434 69.7773 65.6857Z" stroke="white" stroke-width="0.5" stroke-miterlimit="10"></path><path d="M62.0327 65.799C62.0327 66.4413 62.5616 66.9324 63.2038 66.9324C63.8461 66.9324 64.3372 66.4035 64.3372 65.7613C64.3372 65.119 63.8083 64.6279 63.1661 64.6279C62.5616 64.6279 62.0327 65.1568 62.0327 65.799Z" stroke="white" stroke-width="0.5" stroke-miterlimit="10"></path><path d="M81.8665 53.7855L76.8041 53.861L73.3663 63.3434L60.7104 63.5323" stroke="white" stroke-width="0.5" stroke-miterlimit="10"></path><path d="M69.777 65.6857L64.3369 65.7613" stroke="white" stroke-width="0.5" stroke-miterlimit="10"></path><path d="M74.8771 54.6544H74.6127L60.2568 54.8433L62.108 62.059L72.1949 61.9456L74.8771 54.6544Z" stroke="white" stroke-width="0.5" stroke-miterlimit="10"></path><path d="M73.9706 57.11L60.937 57.2989" stroke="white" stroke-width="0.5" stroke-miterlimit="10"></path><path d="M73.1015 59.4901L61.5034 59.6789" stroke="white" stroke-width="0.5" stroke-miterlimit="10"></path><path d="M63.2793 54.8055L64.4882 62.0212" stroke="white" stroke-width="0.5" stroke-miterlimit="10"></path><path d="M71.4015 54.6922L69.8525 61.9457" stroke="white" stroke-width="0.5" stroke-miterlimit="10"></path><path d="M67.0947 54.7299L67.2081 61.9834" stroke="white" stroke-width="0.5" stroke-miterlimit="10"></path><path opacity="0.4" d="M30.0718 13.9668C30.0718 14.1179 39.8942 14.2312 51.9834 14.2312C64.0725 14.2312 73.895 14.1179 73.895 13.9668C73.895 13.8156 64.0725 13.7023 51.9834 13.7023C39.8942 13.7023 30.0718 13.8156 30.0718 13.9668Z" fill="url(#paint5_radial_3497_19052)"></path></g></g><defs><linearGradient id="paint0_linear_3497_19052" x1="3.29599" y1="86.2568" x2="97.9176" y2="86.2568" gradientUnits="userSpaceOnUse"><stop stop-color="white"></stop><stop offset="0.218" stop-color="#B2B1AF"></stop><stop offset="0.3496" stop-color="white"></stop><stop offset="0.4739" stop-color="#6C6964"></stop><stop offset="0.6306" stop-color="white"></stop><stop offset="0.7946" stop-color="#6C6964"></stop><stop offset="1" stop-color="#B2B1AF"></stop></linearGradient><linearGradient id="paint1_linear_3497_19052" x1="3.29599" y1="87.9494" x2="97.9176" y2="87.9494" gradientUnits="userSpaceOnUse"><stop stop-color="#6C6964"></stop><stop offset="0.218"></stop><stop offset="0.3496"></stop><stop offset="0.4739" stop-color="#49443E"></stop><stop offset="0.6306"></stop><stop offset="0.7946" stop-color="#49443E"></stop><stop offset="1"></stop></linearGradient><linearGradient id="paint2_linear_3497_19052" x1="49.8056" y1="13.8139" x2="49.7558" y2="10.8294" gradientUnits="userSpaceOnUse"><stop offset="6.8e-07" stop-color="#1B8A9D"></stop><stop offset="1" stop-color="#63D9EE"></stop></linearGradient><linearGradient id="paint3_linear_3497_19052" x1="32.1177" y1="72.7633" x2="31.6996" y2="67.1483" gradientUnits="userSpaceOnUse"><stop offset="6.8e-07" stop-color="#1B8A9D"></stop><stop offset="1" stop-color="#63D9EE"></stop></linearGradient><linearGradient id="paint4_linear_3497_19052" x1="67.1418" y1="72.9229" x2="62.2829" y2="49.259" gradientUnits="userSpaceOnUse"><stop offset="6.8e-07" stop-color="#1B8A9D"></stop><stop offset="1" stop-color="#63D9EE"></stop></linearGradient><radialGradient id="paint5_radial_3497_19052" cx="0" cy="0" r="1" gradientUnits="userSpaceOnUse" gradientTransform="translate(51.9995 13.9785) rotate(180) scale(21.9275 0.264185)"><stop stop-color="white"></stop><stop offset="0.1263" stop-color="#E6E6E6"></stop><stop offset="0.3961" stop-color="#A4A4A4"></stop><stop offset="0.7845" stop-color="#3C3C3C"></stop><stop offset="1"></stop></radialGradient></defs></svg> 