<?xml version="1.0" encoding="UTF-8"?>
<svg xmlns="http://www.w3.org/2000/svg" width="100" height="100" viewBox="0 0 100 100" fill="none"><mask id="mask0_3497_19139" style="mask-type:alpha" maskUnits="userSpaceOnUse" x="0" y="0" width="100" height="100"><rect width="100" height="100" fill="#D9D9D9"/></mask><g mask="url(#mask0_3497_19139)"><path d="M70.3461 87.4752C70.3461 84.1089 68.2669 81.1881 65.2966 80C64.9501 78.1683 64.0095 76.5346 62.6234 75.3465C62.6729 74.9505 62.7224 74.5544 62.7224 74.1089C62.7224 69.7525 59.2075 66.2376 54.8511 66.2376C53.6135 66.2376 52.4254 66.5346 51.3857 67.0792C49.9501 66.0396 48.1679 65.4455 46.2372 65.4455C41.3362 65.4455 37.3263 69.4554 37.3263 74.3564C37.3263 74.5544 37.3263 74.703 37.3758 74.901C34.059 76.0891 31.6828 79.3564 31.6828 83.1683C31.6828 83.3663 31.6828 83.6138 31.7323 83.8119C29.8016 85.4455 28.564 87.8713 28.564 90.6436C28.564 95.5445 32.5739 99.5544 37.4749 99.5544C39.1085 99.5544 40.5937 99.1089 41.8808 98.3663C43.0194 98.9109 44.257 99.2079 45.5937 99.2079C47.6729 99.2079 49.6036 98.4653 51.1382 97.2772C51.8313 97.4752 52.5244 97.5742 53.3164 97.5742C53.861 97.5742 54.356 97.5247 54.8511 97.4257C56.2867 98.7624 58.2174 99.5544 60.2966 99.5544C64.257 99.5544 67.5244 96.6832 68.2669 92.9703C69.5541 91.4851 70.3461 89.5544 70.3461 87.4752Z" fill="#EBF8FE"/><path d="M57.475 62.5742L50.1482 62.8713L42.8215 62.5742C42.8215 62.5742 39.8017 64.9505 39.8512 69.802H50.0492H50.2472H60.4452C60.4948 64.9505 57.475 62.5742 57.475 62.5742Z" fill="url(#paint0_linear_3497_19139)"/><path d="M61.2869 40C61.2869 40 61.3859 44.8515 65.7424 46.6831C70.0988 48.4653 76.1879 51.5346 76.2869 63.3663H59.1582L61.2869 40Z" fill="url(#paint1_linear_3497_19139)"/><path d="M38.7622 40C38.7622 40 38.6632 44.8515 34.3068 46.6831C29.9503 48.4653 23.8612 51.5346 23.7622 63.3663H40.8909L38.7622 40Z" fill="url(#paint2_linear_3497_19139)"/><path d="M61.8813 63.8613C61.8813 63.8613 65.8911 16.8811 50.0496 0.990051C34.1585 16.8811 38.1684 63.8613 38.1684 63.8613H61.8813Z" fill="#ECF9FF"/><path d="M50.0988 31.4851C53.7351 31.4851 56.683 28.5373 56.683 24.901C56.683 21.2646 53.7351 18.3168 50.0988 18.3168C46.4625 18.3168 43.5146 21.2646 43.5146 24.901C43.5146 28.5373 46.4625 31.4851 50.0988 31.4851Z" fill="url(#paint3_linear_3497_19139)"/><path d="M50.0989 43.1683C51.9855 43.1683 53.5148 41.639 53.5148 39.7525C53.5148 37.8659 51.9855 36.3366 50.0989 36.3366C48.2124 36.3366 46.6831 37.8659 46.6831 39.7525C46.6831 41.639 48.2124 43.1683 50.0989 43.1683Z" fill="url(#paint4_linear_3497_19139)"/></g><defs><linearGradient id="paint0_linear_3497_19139" x1="45.5027" y1="58.6454" x2="52.9599" y2="74.66" gradientUnits="userSpaceOnUse"><stop stop-color="#BDF7A3"/><stop offset="1" stop-color="#009EE0"/></linearGradient><linearGradient id="paint1_linear_3497_19139" x1="74.1258" y1="44.7937" x2="58.2173" y2="65.3208" gradientUnits="userSpaceOnUse"><stop stop-color="#BDF7A3"/><stop offset="1" stop-color="#009EE0"/></linearGradient><linearGradient id="paint2_linear_3497_19139" x1="26.5285" y1="41.5018" x2="38.2675" y2="66.7116" gradientUnits="userSpaceOnUse"><stop stop-color="#BDF7A3"/><stop offset="1" stop-color="#009EE0"/></linearGradient><linearGradient id="paint3_linear_3497_19139" x1="42.0696" y1="10.225" x2="54.5784" y2="33.1256" gradientUnits="userSpaceOnUse"><stop stop-color="#BDF7A3"/><stop offset="1" stop-color="#009EE0"/></linearGradient><linearGradient id="paint4_linear_3497_19139" x1="44.8469" y1="27.4439" x2="59.4724" y2="61.6986" gradientUnits="userSpaceOnUse"><stop stop-color="#BDF7A3"/><stop offset="1" stop-color="#009EE0"/></linearGradient></defs></svg>